<svg height="100" viewBox="0 0 100 100" width="100" xmlns="http://www.w3.org/2000/svg"><path d="m32.62 24h34.76a9.12 9.12 0 0 1 9.12 9.12v15.31c-1.8-.93-5.74-1.92-11.57-1.92a42.35 42.35 0 0 0 -6.67.5c-3.93.65-6 1.77-6 2.46v26c0 .43.59 1 1.71 1.56h-21.35a9.12 9.12 0 0 1 -9.12-9.12v-34.78a9.12 9.12 0 0 1 9.12-9.13z" fill="#19486f"/><path d="m32.62 21.81h34.76a9.12 9.12 0 0 1 9.12 9.12v15.3c-1.8-.93-5.74-1.92-11.57-1.92a42.35 42.35 0 0 0 -6.67.5c-3.93.65-6 1.77-6 2.46v26c0 .43.59 1 1.71 1.56h-21.35a9.12 9.12 0 0 1 -9.12-9.12v-34.78a9.12 9.12 0 0 1 9.12-9.12z" fill="#2e73b8"/><path d="m65.85 51.29a35.53 35.53 0 0 0 -5.6.42 16.49 16.49 0 0 1 -5-.44v2.5c0 .58 1.75 1.52 5 2.05a33.94 33.94 0 0 0 5.6.42c6.9 0 10.65-1.63 10.65-2.47v-2.5z" fill="#19486f"/><path d="m55 58.63v17.1c0 .87 3 2.47 10.12 2.47a32.25 32.25 0 0 0 8.79-1c1.42-.46 2.43-1 2.54-1.37v-17c-2.08 1.29-6.37 2-10.63 2h-.28-1.31-.18l-1.05-.18h-.54l-.84-.07-.45-.07-.9-.12a14.26 14.26 0 0 1 -5.27-1.76z" fill="#19486f"/><path d="m65.85 48.8a35.53 35.53 0 0 0 -5.6.42c-3.3.55-5 1.49-5 2.06s1.75 1.52 5 2.05a33.94 33.94 0 0 0 5.6.42c6.9 0 10.65-1.63 10.65-2.47s-3.75-2.48-10.65-2.48z" fill="#2e73b8"/><path d="m55 56.13v17.1c0 .87 3 2.47 10.12 2.47a32.25 32.25 0 0 0 8.79-1c1.42-.46 2.43-1 2.54-1.37v-17c-2.08 1.29-6.37 2-10.63 2h-.28-1.31-.18l-1.05-.18h-.54l-.84-.15h-.45l-.9-.12a14.26 14.26 0 0 1 -5.27-1.75z" fill="#2e73b8"/><path d="m32.62 74.81h21.33v2.19h-21.33a9.12 9.12 0 0 1 -9.12-9.12v-2.2a9.12 9.12 0 0 0 9.12 9.13z" fill="#19486f"/><path d="m63 68.81c0 1.75 1.36 2.43 2.91 2.43 1 0 2.56-.29 2.56-1.64s-2-1.65-3.9-2.17-3.92-1.27-3.92-3.73c0-2.68 2.54-4 4.91-4 2.74 0 5.26 1.19 5.26 4.23h-2.82c-.09-1.58-1.21-2-2.59-2-.92 0-2 .39-2 1.49s.63 1.14 3.92 2c1 .24 3.9.85 3.9 3.82 0 2.41-1.89 4.21-5.46 4.21-2.91 0-5.63-1.43-5.59-4.67z" fill="#fff"/></svg>