<svg height="64" viewBox="0 0 64 64" width="64" xmlns="http://www.w3.org/2000/svg"><path d="m3.55355927 37.3426834c2.90836336 4.4231628 7.01414723 7.7367945 11.90697673 11.1627907 13.4175759 9.3950878 26.7906978 7.1163983 32.0000001 2.279189 0 0 1.5930232-1.7846634 5.0232559-.7833905 2.3860399.6964767 5.5508702 3.2207504 6.6949756 4.3999174.2451844-1.0573969.3747917-2.1590953.3747917-3.2910651 0-4.0624744-1.6693251-7.735057-4.3594467-10.3692192 4.0860227-11.483998-2.2760957-26.7512752-15.9675547-36.46123907 5.9554376 9.05728307 7.9202126 19.03344127 3.7688619 26.92348187-9.282672-6.0188087-27.5348839-21.95348883-27.5348839-21.95348883s8.5581396 13.02325583 15.0697675 19.34883723c-6.5116279-3.9069767-10.0465117-6.6976744-21.39534891-16.1860465 7.77271911 12.7589917 21.05726071 24.3297414 25.86046531 28.3284547-14.5116279 7.764569-31.44186053-3.3982217-31.44186053-3.3982217z" fill="#e43535" fill-rule="evenodd"/></svg>